<svg width="17" height="12" viewBox="0 0 17 12" fill="none" xmlns="http://www.w3.org/2000/svg">
<path d="M0.987305 5.47539C1.22616 4.81121 1.68755 4.57726 2.35921 4.5801C6.53706 4.59717 10.7149 4.59717 14.8928 4.5801C15.5733 4.5801 16.0496 4.8041 16.2987 5.4761V5.97388C16.0578 6.63522 15.5951 6.8713 14.9261 6.86846C10.7369 6.85281 6.54772 6.85281 2.35852 6.86846C1.69095 6.86846 1.22684 6.63735 0.987305 5.97388V5.47539Z" fill="#B12930"/>
<path d="M0.987305 0.924649C1.20983 0.249804 1.67326 -0.00832914 2.34219 0.00020419C4.04346 0.0172709 5.74472 0.000204624 7.44123 0.00731573C8.14623 0.00731573 8.61578 0.467404 8.62599 1.13798C8.63552 1.77798 8.18978 2.27576 7.57461 2.28145C5.73724 2.28998 3.89987 2.28145 2.06727 2.28145C1.49632 2.28145 1.20371 1.90456 0.987305 1.42029V0.924649Z" fill="#B12930"/>
<path d="M16.2992 10.5244C16.0658 11.2092 15.5922 11.4602 14.9117 11.4489C13.2369 11.4275 11.5609 11.4489 9.88545 11.4403C9.11647 11.4403 8.64488 10.971 8.66053 10.2471C8.67278 9.66469 9.10695 9.17331 9.66972 9.16905C11.5379 9.15719 13.4057 9.15719 15.273 9.16905C15.8378 9.17402 16.1305 9.57509 16.2992 10.0935V10.5244Z" fill="#B12930"/>
</svg>
