<svg width="227" height="44" viewBox="0 0 227 44" fill="none" xmlns="http://www.w3.org/2000/svg">
<path d="M18.2296 25.0524C17.6663 27.8081 16.5625 29.9321 14.9181 31.4242C13.2738 32.901 11.4544 33.6395 9.45983 33.6395C7.08467 33.6395 5.01402 32.6422 3.24788 30.6477C1.48174 28.6532 0.598664 25.9583 0.598664 22.563C0.598664 19.2743 1.57309 16.6023 3.52194 14.5468C5.48601 12.4914 7.83833 11.4637 10.5789 11.4637C12.6343 11.4637 14.3243 12.0118 15.6489 13.108C16.9736 14.189 17.6359 15.3157 17.6359 16.4881C17.6359 17.0666 17.4455 17.5386 17.0649 17.904C16.6995 18.2542 16.1818 18.4293 15.5119 18.4293C14.6136 18.4293 13.9361 18.14 13.4793 17.5615C13.2205 17.2417 13.0454 16.6327 12.9541 15.7344C12.8779 14.8361 12.5734 14.151 12.0405 13.679C11.5076 13.2222 10.7692 12.9939 9.82524 12.9939C8.3027 12.9939 7.07706 13.5572 6.14831 14.6839C4.91506 16.176 4.29843 18.1476 4.29843 20.5989C4.29843 23.0959 4.90745 25.3036 6.12548 27.222C7.35873 29.1251 9.0183 30.0767 11.1042 30.0767C12.5963 30.0767 13.9361 29.5667 15.1237 28.5466C15.9611 27.8462 16.7756 26.5749 17.5673 24.7326L18.2296 25.0524ZM24.6946 0.524274C25.3341 0.524274 25.8746 0.752654 26.3162 1.20942C26.7729 1.65095 27.0013 2.19145 27.0013 2.83092C27.0013 3.47038 26.7729 4.0185 26.3162 4.47526C25.8746 4.93202 25.3341 5.1604 24.6946 5.1604C24.0552 5.1604 23.5071 4.93202 23.0503 4.47526C22.5935 4.0185 22.3652 3.47038 22.3652 2.83092C22.3652 2.19145 22.5859 1.65095 23.0275 1.20942C23.4842 0.752654 24.04 0.524274 24.6946 0.524274ZM26.5902 11.4637V28.2725C26.5902 29.5819 26.6816 30.4574 26.8643 30.8989C27.0622 31.3252 27.3439 31.6449 27.7093 31.8581C28.0899 32.0713 28.7751 32.1778 29.7647 32.1778V33H19.6018V32.1778C20.6219 32.1778 21.307 32.0789 21.6572 31.8809C22.0074 31.683 22.2814 31.3557 22.4794 30.8989C22.6925 30.4421 22.7991 29.5667 22.7991 28.2725V20.2107C22.7991 17.9421 22.7306 16.4729 22.5935 15.8029C22.487 15.3157 22.3195 14.9808 22.0911 14.7981C21.8627 14.6001 21.5506 14.5012 21.1548 14.5012C20.7284 14.5012 20.2108 14.6154 19.6018 14.8437L19.282 14.0216L25.5853 11.4637H26.5902ZM36.5951 5.20608V12.0803H41.4825V13.679H36.5951V27.2448C36.5951 28.5999 36.7854 29.5134 37.1661 29.9854C37.5619 30.4574 38.0644 30.6934 38.6734 30.6934C39.1758 30.6934 39.663 30.5411 40.135 30.2366C40.607 29.9169 40.9724 29.4525 41.2312 28.8435H42.1219C41.589 30.3356 40.8354 31.4622 39.861 32.2235C38.8865 32.9695 37.8817 33.3426 36.8463 33.3426C36.146 33.3426 35.4608 33.1523 34.7909 32.7716C34.121 32.3758 33.6262 31.82 33.3064 31.1044C32.9867 30.3736 32.8268 29.2546 32.8268 27.7472V13.679H29.5153V12.9253C30.3527 12.5904 31.2053 12.027 32.0732 11.2353C32.9562 10.4284 33.7403 9.47679 34.4255 8.38057C34.7757 7.802 35.2629 6.74384 35.8871 5.20608H36.5951ZM40.4794 12.0803H50.2313V12.9253H49.7517C49.0665 12.9253 48.5489 13.0776 48.1987 13.3821C47.8637 13.6714 47.6962 14.0368 47.6962 14.4783C47.6962 15.0721 47.9475 15.8943 48.4499 16.9448L53.5428 27.496L58.2246 15.94C58.4834 15.3157 58.6128 14.6991 58.6128 14.0901C58.6128 13.816 58.5595 13.6105 58.453 13.4735C58.3312 13.306 58.1408 13.1766 57.882 13.0852C57.6232 12.9786 57.1664 12.9253 56.5117 12.9253V12.0803H63.3175V12.9253C62.7541 12.9862 62.3202 13.108 62.0157 13.2908C61.7112 13.4735 61.3762 13.816 61.0108 14.3185C60.8738 14.5316 60.615 15.1178 60.2343 16.077L51.7157 36.951C50.8936 38.976 49.8126 40.5061 48.4727 41.5414C47.1481 42.5768 45.8692 43.0944 44.6359 43.0944C43.7376 43.0944 42.9992 42.8356 42.4206 42.3179C41.8421 41.8003 41.5528 41.2065 41.5528 40.5366C41.5528 39.8971 41.7583 39.3794 42.1694 38.9836C42.5957 38.6029 43.1743 38.4126 43.9051 38.4126C44.4076 38.4126 45.0927 38.5801 45.9605 38.9151C46.5696 39.1434 46.9502 39.2576 47.1024 39.2576C47.5592 39.2576 48.054 39.0216 48.5869 38.5496C49.135 38.0777 49.6831 37.1641 50.2313 35.8091L51.7157 32.1778L44.202 16.3967C43.9736 15.9247 43.6082 15.3386 43.1058 14.6382C42.7251 14.1053 42.413 13.7475 42.1694 13.5648C41.8192 13.3212 41.2559 13.108 40.4794 12.9253V12.0803ZM61.675 14.1586L68.1153 11.5551H68.9831V16.4424C70.0641 14.6001 71.1451 13.3136 72.2261 12.5828C73.3224 11.8367 74.4719 11.4637 75.6747 11.4637C77.7758 11.4637 79.5267 12.2859 80.9274 13.9302C82.6479 15.94 83.5081 18.5587 83.5081 21.7865C83.5081 25.3949 82.4728 28.3791 80.4022 30.739C78.6969 32.6727 76.5501 33.6395 73.9618 33.6395C72.8352 33.6395 71.8607 33.4796 71.0386 33.1599C70.4295 32.9315 69.7444 32.4747 68.9831 31.7896V38.1614C68.9831 39.5926 69.0669 40.4985 69.2344 40.8791C69.4171 41.275 69.7216 41.5871 70.1479 41.8155C70.5894 42.0439 71.3811 42.1581 72.523 42.1581V43.0031H61.5608V42.1581H62.1317C62.9691 42.1733 63.6847 42.0134 64.2785 41.6785C64.5678 41.511 64.7885 41.2369 64.9408 40.8563C65.1083 40.4909 65.192 39.5469 65.192 38.0244V18.2466C65.192 16.8916 65.1311 16.0313 65.0093 15.6659C64.8875 15.3005 64.6896 15.0264 64.4155 14.8437C64.1567 14.661 63.7989 14.5697 63.3421 14.5697C62.9767 14.5697 62.5124 14.6763 61.949 14.8894L61.675 14.1586ZM68.9831 17.7898V25.6005C68.9831 27.2905 69.0516 28.4019 69.1887 28.9348C69.4018 29.8179 69.9195 30.5944 70.7417 31.2643C71.5791 31.9342 72.6296 32.2692 73.8933 32.2692C75.4159 32.2692 76.6491 31.6754 77.5931 30.4878C78.8263 28.9348 79.443 26.75 79.443 23.9333C79.443 20.736 78.7426 18.2771 77.3419 16.5566C76.3674 15.369 75.2103 14.7752 73.8705 14.7752C73.1397 14.7752 72.4165 14.9579 71.7009 15.3233C71.1528 15.5974 70.2468 16.4196 68.9831 17.7898ZM91.8915 0.524274V28.2725C91.8915 29.5819 91.9829 30.4497 92.1656 30.8761C92.3635 31.3024 92.6604 31.6297 93.0563 31.8581C93.4521 32.0713 94.1906 32.1778 95.2716 32.1778V33H85.0173V32.1778C85.9765 32.1778 86.6312 32.0789 86.9814 31.8809C87.3315 31.683 87.6056 31.3557 87.8035 30.8989C88.0015 30.4421 88.1004 29.5667 88.1004 28.2725V9.27125C88.1004 6.91132 88.0471 5.46491 87.9406 4.93202C87.834 4.38391 87.6589 4.01088 87.4153 3.81295C87.1869 3.61502 86.89 3.51606 86.5246 3.51606C86.1287 3.51606 85.6263 3.63786 85.0173 3.88147L84.629 3.08214L90.8638 0.524274H91.8915ZM107.697 29.9854C105.551 31.6449 104.203 32.6041 103.655 32.863C102.833 33.2436 101.957 33.4339 101.029 33.4339C99.5822 33.4339 98.387 32.9391 97.443 31.9494C96.5143 30.9598 96.0499 29.658 96.0499 28.0441C96.0499 27.024 96.2783 26.141 96.735 25.3949C97.3593 24.3596 98.4403 23.3852 99.978 22.4717C101.531 21.5581 104.104 20.4467 107.697 19.1373V18.3151C107.697 16.2292 107.362 14.7981 106.692 14.0216C106.038 13.2451 105.079 12.8568 103.815 12.8568C102.856 12.8568 102.094 13.1157 101.531 13.6333C100.952 14.151 100.663 14.7448 100.663 15.4147L100.709 16.7393C100.709 17.4397 100.526 17.9802 100.161 18.3608C99.8106 18.7414 99.3462 18.9318 98.7676 18.9318C98.2043 18.9318 97.7399 18.7338 97.3745 18.338C97.0243 17.9421 96.8492 17.4016 96.8492 16.7165C96.8492 15.4071 97.5191 14.2043 98.859 13.108C100.199 12.0118 102.079 11.4637 104.5 11.4637C106.357 11.4637 107.88 11.7758 109.068 12.4001C109.966 12.8721 110.628 13.6105 111.054 14.6154C111.329 15.2701 111.466 16.6099 111.466 18.6349V25.7375C111.466 27.732 111.504 28.9577 111.58 29.4144C111.656 29.856 111.778 30.1529 111.945 30.3051C112.128 30.4574 112.333 30.5335 112.562 30.5335C112.805 30.5335 113.019 30.4802 113.201 30.3736C113.521 30.1757 114.138 29.62 115.051 28.7064V29.9854C113.346 32.2692 111.717 33.4111 110.164 33.4111C109.418 33.4111 108.824 33.1523 108.382 32.6346C107.941 32.1169 107.713 31.2339 107.697 29.9854ZM107.697 28.5009V20.5304C105.398 21.4439 103.914 22.091 103.244 22.4717C102.041 23.1416 101.181 23.8419 100.663 24.5728C100.146 25.3036 99.8867 26.1029 99.8867 26.9708C99.8867 28.067 100.214 28.9805 100.869 29.7113C101.523 30.4269 102.277 30.7847 103.13 30.7847C104.287 30.7847 105.809 30.0234 107.697 28.5009ZM120.854 15.8943C123.305 12.9406 125.642 11.4637 127.865 11.4637C129.007 11.4637 129.989 11.753 130.811 12.3316C131.633 12.8949 132.288 13.8313 132.775 15.1406C133.11 16.0542 133.278 17.4549 133.278 19.3428V28.2725C133.278 29.5971 133.384 30.4954 133.598 30.9674C133.765 31.348 134.031 31.6449 134.397 31.8581C134.777 32.0713 135.47 32.1778 136.475 32.1778V33H126.129V32.1778H126.563C127.538 32.1778 128.215 32.0332 128.596 31.7439C128.992 31.4394 129.266 30.9979 129.418 30.4193C129.479 30.1909 129.509 29.4753 129.509 28.2725V19.7082C129.509 17.8051 129.258 16.4272 128.756 15.5746C128.269 14.7067 127.439 14.2728 126.266 14.2728C124.455 14.2728 122.65 15.2624 120.854 17.2417V28.2725C120.854 29.6885 120.938 30.5639 121.105 30.8989C121.318 31.3404 121.608 31.6678 121.973 31.8809C122.354 32.0789 123.115 32.1778 124.257 32.1778V33H113.911V32.1778H114.368C115.434 32.1778 116.149 31.9114 116.515 31.3785C116.895 30.8304 117.086 29.7951 117.086 28.2725V20.5076C117.086 17.9954 117.025 16.4652 116.903 15.9171C116.796 15.369 116.621 14.996 116.378 14.7981C116.149 14.6001 115.837 14.5012 115.441 14.5012C115.015 14.5012 114.505 14.6154 113.911 14.8437L113.569 14.0216L119.872 11.4637H120.854V15.8943ZM149.792 11.4637V18.5892H149.038C148.459 16.3511 147.713 14.8285 146.8 14.0216C145.901 13.2146 144.752 12.8112 143.351 12.8112C142.285 12.8112 141.425 13.0928 140.77 13.6562C140.116 14.2195 139.788 14.8437 139.788 15.5289C139.788 16.3815 140.032 17.1123 140.519 17.7213C140.991 18.3456 141.95 19.0079 143.397 19.7082L146.731 21.3297C149.822 22.8371 151.367 24.824 151.367 27.2905C151.367 29.1937 150.644 30.7314 149.198 31.9038C147.767 33.0609 146.16 33.6395 144.379 33.6395C143.1 33.6395 141.638 33.4111 139.994 32.9543C139.492 32.8021 139.08 32.7259 138.761 32.7259C138.411 32.7259 138.136 32.9239 137.939 33.3197H137.185V25.8517H137.939C138.365 27.9832 139.179 29.5895 140.382 30.6705C141.585 31.7515 142.932 32.292 144.425 32.292C145.475 32.292 146.328 31.9875 146.982 31.3785C147.652 30.7543 147.987 30.0082 147.987 29.1404C147.987 28.0898 147.614 27.2067 146.868 26.4912C146.137 25.7756 144.668 24.8696 142.46 23.7734C140.253 22.6772 138.806 21.6875 138.121 20.8045C137.436 19.9366 137.094 18.8404 137.094 17.5158C137.094 15.7953 137.68 14.3565 138.852 13.1994C140.04 12.0423 141.57 11.4637 143.443 11.4637C144.265 11.4637 145.262 11.6388 146.434 11.989C147.211 12.2174 147.728 12.3316 147.987 12.3316C148.231 12.3316 148.421 12.2783 148.558 12.1717C148.695 12.0651 148.855 11.8291 149.038 11.4637H149.792ZM157.01 28.5694C157.726 28.5694 158.327 28.8206 158.814 29.3231C159.302 29.8103 159.545 30.4041 159.545 31.1044C159.545 31.8048 159.294 32.4062 158.792 32.9086C158.304 33.3959 157.711 33.6395 157.01 33.6395C156.31 33.6395 155.708 33.3959 155.206 32.9086C154.719 32.4062 154.475 31.8048 154.475 31.1044C154.475 30.3888 154.719 29.7874 155.206 29.3002C155.708 28.813 156.31 28.5694 157.01 28.5694ZM172.679 11.4637C175.846 11.4637 178.388 12.6665 180.307 15.0721C181.936 17.1275 182.75 19.4875 182.75 22.1519C182.75 24.0246 182.301 25.9202 181.403 27.8386C180.505 29.757 179.264 31.2034 177.68 32.1778C176.112 33.1523 174.361 33.6395 172.428 33.6395C169.276 33.6395 166.771 32.3834 164.914 29.8712C163.346 27.7549 162.562 25.3797 162.562 22.7457C162.562 20.8273 163.034 18.9241 163.978 17.0362C164.937 15.133 166.193 13.7323 167.746 12.834C169.299 11.9205 170.943 11.4637 172.679 11.4637ZM171.971 12.9482C171.164 12.9482 170.349 13.1918 169.527 13.679C168.72 14.151 168.066 14.9884 167.563 16.1912C167.061 17.394 166.81 18.9394 166.81 20.8273C166.81 23.8724 167.411 26.4988 168.614 28.7064C169.832 30.9141 171.43 32.018 173.41 32.018C174.887 32.018 176.105 31.4089 177.064 30.1909C178.023 28.9729 178.503 26.8794 178.503 23.9105C178.503 20.1955 177.703 17.2722 176.105 15.1406C175.024 13.679 173.646 12.9482 171.971 12.9482ZM190.083 11.4637V16.1683C191.834 13.0319 193.631 11.4637 195.473 11.4637C196.311 11.4637 197.003 11.7225 197.551 12.2402C198.099 12.7426 198.374 13.3288 198.374 13.9987C198.374 14.5925 198.176 15.095 197.78 15.506C197.384 15.9171 196.912 16.1227 196.364 16.1227C195.831 16.1227 195.23 15.8638 194.56 15.3462C193.905 14.8133 193.418 14.5468 193.098 14.5468C192.824 14.5468 192.527 14.6991 192.207 15.0036C191.522 15.6278 190.814 16.6556 190.083 18.0867V28.1127C190.083 29.2698 190.228 30.1452 190.517 30.739C190.715 31.1501 191.065 31.4927 191.568 31.7667C192.07 32.0408 192.793 32.1778 193.737 32.1778V33H183.026V32.1778C184.092 32.1778 184.884 32.0104 185.402 31.6754C185.782 31.4318 186.049 31.0435 186.201 30.5107C186.277 30.2518 186.315 29.5134 186.315 28.2954V20.1878C186.315 17.7518 186.262 16.3054 186.155 15.8486C186.064 15.3766 185.881 15.0341 185.607 14.8209C185.348 14.6077 185.021 14.5012 184.625 14.5012C184.153 14.5012 183.62 14.6154 183.026 14.8437L182.798 14.0216L189.124 11.4637H190.083ZM203.263 25.3721C201.984 24.7478 201.002 23.88 200.317 22.7685C199.631 21.6419 199.289 20.401 199.289 19.0459C199.289 16.9753 200.065 15.1939 201.618 13.7018C203.187 12.2097 205.189 11.4637 207.625 11.4637C209.619 11.4637 211.347 11.9509 212.809 12.9253H217.24C217.894 12.9253 218.275 12.9482 218.382 12.9939C218.488 13.0243 218.564 13.0852 218.61 13.1766C218.701 13.3136 218.747 13.5572 218.747 13.9074C218.747 14.3032 218.709 14.5773 218.633 14.7295C218.587 14.8057 218.503 14.8666 218.382 14.9123C218.275 14.9579 217.894 14.9808 217.24 14.9808H214.522C215.375 16.077 215.801 17.4777 215.801 19.183C215.801 21.1318 215.055 22.799 213.563 24.1845C212.071 25.57 210.068 26.2628 207.556 26.2628C206.521 26.2628 205.463 26.1105 204.382 25.806C203.712 26.3846 203.255 26.8946 203.012 27.3362C202.783 27.7625 202.669 28.1279 202.669 28.4324C202.669 28.6912 202.791 28.9424 203.034 29.186C203.293 29.4296 203.788 29.6047 204.519 29.7113C204.945 29.7722 206.011 29.8255 207.716 29.8712C210.853 29.9473 212.885 30.0539 213.814 30.1909C215.23 30.3888 216.357 30.9141 217.194 31.7667C218.047 32.6194 218.473 33.6699 218.473 34.9184C218.473 36.6389 217.666 38.2528 216.052 39.7601C213.677 41.983 210.579 43.0944 206.757 43.0944C203.818 43.0944 201.337 42.4321 199.312 41.1075C198.17 40.3462 197.599 39.5545 197.599 38.7324C197.599 38.3669 197.683 38.0015 197.85 37.6361C198.109 37.0728 198.642 36.2887 199.449 35.2838C199.555 35.1468 200.332 34.3246 201.778 32.8173C200.987 32.3453 200.423 31.9266 200.088 31.5612C199.769 31.1806 199.609 30.7543 199.609 30.2823C199.609 29.7494 199.822 29.1251 200.248 28.4095C200.69 27.694 201.695 26.6815 203.263 25.3721ZM207.237 12.5599C206.11 12.5599 205.166 13.0091 204.405 13.9074C203.643 14.8057 203.263 16.1836 203.263 18.0411C203.263 20.4467 203.78 22.3118 204.816 23.6364C205.607 24.6413 206.612 25.1437 207.83 25.1437C208.987 25.1437 209.939 24.7098 210.685 23.8419C211.431 22.9741 211.804 21.6114 211.804 19.7539C211.804 17.3331 211.279 15.4375 210.228 14.0672C209.452 13.0624 208.455 12.5599 207.237 12.5599ZM203.034 33C202.319 33.7765 201.778 34.4997 201.413 35.1696C201.047 35.8395 200.865 36.4562 200.865 37.0195C200.865 37.7503 201.306 38.3898 202.189 38.9379C203.712 39.8819 205.912 40.3539 208.79 40.3539C211.53 40.3539 213.547 39.8666 214.842 38.8922C216.151 37.933 216.806 36.9053 216.806 35.8091C216.806 35.0174 216.417 34.454 215.641 34.1191C214.849 33.7841 213.281 33.5862 210.936 33.5253C207.511 33.4339 204.877 33.2588 203.034 33ZM223.568 28.5694C224.283 28.5694 224.885 28.8206 225.372 29.3231C225.859 29.8103 226.103 30.4041 226.103 31.1044C226.103 31.8048 225.851 32.4062 225.349 32.9086C224.862 33.3959 224.268 33.6395 223.568 33.6395C222.867 33.6395 222.266 33.3959 221.763 32.9086C221.276 32.4062 221.033 31.8048 221.033 31.1044C221.033 30.3888 221.276 29.7874 221.763 29.3002C222.266 28.813 222.867 28.5694 223.568 28.5694Z" fill="white"/>
</svg>
