<svg width="8" height="13" viewBox="0 0 8 13" fill="none" xmlns="http://www.w3.org/2000/svg">
<path d="M6.9407 0.00288804C6.99476 0.123601 7.09801 0.24258 7.10288 0.364448C7.12018 0.960504 7.10288 1.55714 7.11369 2.15492C7.11747 2.42119 7.00016 2.51013 6.76878 2.51186C6.36387 2.51475 5.95788 2.52111 5.55458 2.54594C5.18049 2.56904 4.96911 2.78044 4.95127 3.18127C4.92965 3.66874 4.9464 4.15795 4.9464 4.68296H6.59957C6.99854 4.68296 7.04665 4.73436 7.04665 5.16466C7.04665 5.72221 7.04665 6.28053 7.04665 6.83962C7.04665 7.28955 7.00016 7.3398 6.59092 7.3398H4.93992V7.66439C4.93992 9.28968 4.94424 10.915 4.93289 12.5408C4.93289 12.6933 4.8318 12.8452 4.77774 12.9971H2.56126C2.37853 12.9041 2.38934 12.7286 2.38989 12.553C2.38989 10.9358 2.38989 9.3201 2.38989 7.70598V7.33575C1.88604 7.33575 1.41139 7.33575 0.937281 7.33575C0.60535 7.33575 0.555614 7.28493 0.554533 6.94011C0.554533 6.30478 0.558858 5.66945 0.55183 5.03412C0.548586 4.77364 0.655085 4.67199 0.894032 4.67603C1.38058 4.68469 1.86442 4.67892 2.38989 4.67892C2.38989 4.35779 2.37637 4.05283 2.39259 3.75018C2.42178 3.21535 2.40773 2.66608 2.52179 2.15088C2.78507 0.964546 3.65706 0.196374 4.79233 0.0508258C4.84349 0.0390664 4.89345 0.0220455 4.94154 0L6.9407 0.00288804Z" fill="white"/>
</svg>
