<svg width="21" height="21" viewBox="0 0 21 21" fill="none" xmlns="http://www.w3.org/2000/svg">
<path d="M20.5002 10.7222C20.5002 9.89994 20.4321 9.29995 20.2848 8.67773H10.7041V12.3888H16.3277C16.2144 13.311 15.6022 14.6999 14.2416 15.6332L14.2225 15.7574L17.2517 18.0572L17.4616 18.0777C19.389 16.3332 20.5002 13.7666 20.5002 10.7222" fill="#4285F4"/>
<path d="M10.7027 20.4998C13.4578 20.4998 15.7708 19.6109 17.4602 18.0776L14.2402 15.6331C13.3785 16.222 12.222 16.6331 10.7027 16.6331C8.0043 16.6331 5.71403 14.8887 4.89761 12.4775L4.77794 12.4875L1.62811 14.8764L1.58691 14.9886C3.26493 18.2553 6.71171 20.4998 10.7027 20.4998Z" fill="#34A853"/>
<path d="M4.89914 12.4782C4.68372 11.856 4.55904 11.1893 4.55904 10.5004C4.55904 9.81152 4.68372 9.14488 4.8878 8.52267L4.8821 8.39015L1.69278 5.96289L1.58843 6.01153C0.896838 7.3671 0.5 8.88934 0.5 10.5004C0.5 12.1115 0.896838 13.6337 1.58843 14.9893L4.89914 12.4782" fill="#FBBC05"/>
<path d="M10.7028 4.36663C12.6189 4.36663 13.9114 5.17773 14.6484 5.85555L17.5283 3.09999C15.7596 1.48889 13.4579 0.5 10.7028 0.5C6.71174 0.5 3.26494 2.74442 1.58691 6.01105L4.88629 8.52218C5.71405 6.11109 8.00433 4.36663 10.7028 4.36663" fill="#EB4335"/>
</svg>
