<svg width="14" height="13" viewBox="0 0 14 13" fill="none" xmlns="http://www.w3.org/2000/svg">
<path d="M4.68102 0H9.19805C9.59402 0.0381249 9.99176 0.0687403 10.3866 0.11553C11.8783 0.294024 13.0223 1.29971 13.3672 2.74095C13.4423 3.05519 13.4845 3.37636 13.5397 3.69696V9.24239C13.5148 9.35218 13.4962 9.46327 13.4839 9.57512C13.3842 11.3289 12.1259 12.6627 10.3549 12.8845C9.99 12.9301 9.62277 12.9601 9.25671 13H4.68102C4.30499 12.9625 3.92779 12.9307 3.55235 12.8845C1.86814 12.6846 0.532388 11.3993 0.473139 9.73224C0.39805 7.60013 0.39981 5.4611 0.473139 3.32899C0.531801 1.60355 1.83881 0.325216 3.58226 0.113219C3.94597 0.0670068 4.31379 0.0375472 4.68102 0ZM6.96065 11.784C7.92859 11.784 8.89652 11.8187 9.8627 11.776C11.1533 11.7182 12.062 11.0447 12.2585 9.79347C12.3325 9.29837 12.3672 8.79834 12.3623 8.29793C12.3582 6.69091 12.3559 5.08331 12.3001 3.47803C12.2608 2.34988 11.5639 1.56081 10.4505 1.32628C9.98304 1.2342 9.50693 1.19159 9.03027 1.1992C7.26218 1.20844 5.4935 1.2096 3.72775 1.28469C2.71054 1.32802 1.94616 2.04315 1.71151 3.01764C1.63778 3.30658 1.59841 3.60298 1.59418 3.90087C1.5977 5.75743 1.58069 7.61515 1.64405 9.47056C1.69215 10.8731 2.65481 11.7442 4.09263 11.7812C5.04473 11.8037 6.00328 11.784 6.96065 11.7835V11.784Z" fill="white"/>
<path d="M6.9609 9.82616C5.08369 9.82616 3.55846 8.32428 3.57137 6.48619C3.57091 5.82486 3.7697 5.17825 4.14259 4.62821C4.51547 4.07817 5.04569 3.64943 5.66614 3.39624C6.28659 3.14305 6.96937 3.0768 7.62806 3.20588C8.28676 3.33496 8.89176 3.65356 9.3665 4.12135C9.84124 4.58915 10.1644 5.18512 10.295 5.83382C10.4256 6.48253 10.3579 7.15481 10.1003 7.76559C9.84277 8.37636 9.407 8.89817 8.84815 9.26498C8.28931 9.63178 7.63251 9.82708 6.9609 9.82616ZM6.9433 8.66509C8.18109 8.66797 9.16779 7.71081 9.16838 6.50699C9.17138 6.07732 9.04496 5.65643 8.8051 5.29749C8.56524 4.93856 8.22271 4.6577 7.82079 4.4904C7.41887 4.32311 6.97561 4.2769 6.54702 4.3576C6.11844 4.43831 5.72377 4.64231 5.41289 4.94383C5.10202 5.24534 4.88889 5.63084 4.80045 6.0516C4.71201 6.47235 4.75223 6.90948 4.91602 7.30774C5.0798 7.70599 5.35981 8.0475 5.72065 8.2891C6.08149 8.53069 6.50697 8.66154 6.9433 8.66509Z" fill="white"/>
<path d="M11.2658 3.04463C11.2644 3.2487 11.1809 3.44389 11.0335 3.58738C10.8861 3.73087 10.687 3.81093 10.4797 3.81001C10.0356 3.80366 9.70537 3.4536 9.7171 2.99842C9.72018 2.89817 9.74328 2.79951 9.78509 2.70805C9.8269 2.6166 9.88659 2.53415 9.96075 2.46541C10.0349 2.39667 10.1221 2.34299 10.2173 2.30743C10.3126 2.27187 10.414 2.25513 10.5158 2.25816C10.6176 2.2612 10.7178 2.28395 10.8107 2.32511C10.9036 2.36628 10.9873 2.42505 11.0571 2.49808C11.1269 2.57111 11.1814 2.65697 11.2175 2.75075C11.2536 2.84452 11.2706 2.94438 11.2676 3.04463H11.2658Z" fill="white"/>
</svg>
