<svg width="14" height="14" viewBox="0 0 14 14" fill="none" xmlns="http://www.w3.org/2000/svg">
<path d="M8.04512 13.9649H5.50293V5.42462H8.02605V6.41695L8.2129 6.56456C8.26675 6.41681 8.34118 6.27699 8.43407 6.14902C9.35815 5.19266 10.4856 4.83169 11.772 5.25592C13.0583 5.68014 13.8794 6.59805 13.9328 7.96003C13.9989 9.83803 13.9671 11.7185 13.9519 13.599C13.9519 13.7292 13.7383 13.9711 13.615 13.9711C12.902 14.0071 12.1838 13.9885 11.3716 13.9885V13.2169C11.3716 11.9567 11.383 10.6964 11.3716 9.43613C11.3589 8.42519 10.6305 7.70947 9.67974 7.73056C8.76582 7.75164 8.06418 8.47481 8.05528 9.45102C8.03495 10.9408 8.04512 12.4268 8.04512 13.9649Z" fill="white"/>
<path d="M1.13281 13.9366V5.40625H3.66737V13.9366H1.13281Z" fill="white"/>
<path d="M2.39625 4.03421C2.19013 4.03458 1.98601 3.99478 1.79587 3.91714C1.60572 3.83951 1.43337 3.7256 1.28893 3.58211C1.14449 3.43861 1.03087 3.26841 0.954725 3.0815C0.878582 2.89458 0.841454 2.69471 0.845516 2.4936C0.846864 2.08995 1.01248 1.70334 1.30592 1.41884C1.59936 1.13434 1.99659 0.975255 2.41023 0.976571C2.82387 0.977887 3.22003 1.1395 3.51157 1.42586C3.8031 1.71222 3.96613 2.09987 3.96478 2.50353C3.96494 2.70459 3.92449 2.9037 3.84572 3.08949C3.76695 3.27527 3.65142 3.44407 3.50574 3.58624C3.36006 3.72841 3.18707 3.84115 2.9967 3.91802C2.80632 3.99489 2.60228 4.03437 2.39625 4.03421Z" fill="white"/>
</svg>
